<svg width="224" height="34" viewBox="0 0 224 34" fill="none" xmlns="http://www.w3.org/2000/svg">
<path fill-rule="evenodd" clip-rule="evenodd" d="M14.7333 0C13.4815 0 12.4667 1.01482 12.4667 2.26667V3.4H5.66667C4.41482 3.4 3.4 4.41482 3.4 5.66667V12.4667H2.26667C1.01482 12.4667 0 13.4815 0 14.7333V19.2667C0 20.5185 1.01482 21.5333 2.26667 21.5333H3.4V28.3333C3.4 29.5852 4.41482 30.6 5.66667 30.6H12.4667V31.7333C12.4667 32.9852 13.4815 34 14.7333 34H19.2667C20.5185 34 21.5333 32.9852 21.5333 31.7333V30.6H28.3333C29.5852 30.6 30.6 29.5852 30.6 28.3333V21.5333H31.7333C32.9852 21.5333 34 20.5185 34 19.2667V14.7333C34 13.4815 32.9852 12.4667 31.7333 12.4667H30.6V5.66667C30.6 4.41482 29.5852 3.4 28.3333 3.4H21.5333V2.26667C21.5333 1.01482 20.5185 0 19.2667 0H14.7333ZM10.2 21.5333C11.4518 21.5333 12.4667 22.5482 12.4667 23.8C12.4667 22.5482 13.4815 21.5333 14.7333 21.5333H19.2667C20.5185 21.5333 21.5333 22.5482 21.5333 23.8C21.5333 22.5482 22.5482 21.5333 23.8 21.5333C22.5482 21.5333 21.5333 20.5185 21.5333 19.2667V14.7333C21.5333 13.4815 22.5482 12.4667 23.8 12.4667C22.5482 12.4667 21.5333 11.4518 21.5333 10.2C21.5333 11.4518 20.5185 12.4667 19.2667 12.4667H14.7333C13.4815 12.4667 12.4667 11.4518 12.4667 10.2C12.4667 11.4518 11.4518 12.4667 10.2 12.4667C11.4518 12.4667 12.4667 13.4815 12.4667 14.7333V19.2667C12.4667 20.5185 11.4518 21.5333 10.2 21.5333Z" fill="url(#paint0_linear_25_13654)"/>
<path d="M52.384 25C51.392 25 50.52 24.776 49.768 24.328C49.016 23.864 48.432 23.256 48.016 22.504C47.6 21.736 47.392 20.896 47.392 19.984V8.2H50.824V20.392C50.824 20.824 50.976 21.2 51.28 21.52C51.584 21.824 51.952 21.976 52.384 21.976H56.824V25H52.384ZM63.3929 25C62.4649 25 61.6169 24.776 60.8489 24.328C60.0969 23.88 59.4969 23.28 59.0489 22.528C58.6009 21.76 58.3769 20.912 58.3769 19.984C58.3769 19.312 58.5209 18.68 58.8089 18.088C59.0969 17.496 59.4889 16.976 59.9849 16.528C59.4889 16.08 59.0969 15.56 58.8089 14.968C58.5209 14.376 58.3769 13.752 58.3769 13.096C58.3769 12.184 58.5929 11.36 59.0249 10.624C59.4729 9.888 60.0649 9.304 60.8009 8.872C61.5529 8.424 62.3769 8.2 63.2729 8.2H70.1849V11.224H63.6569C63.3209 11.224 63.0089 11.312 62.7209 11.488C62.4489 11.648 62.2249 11.872 62.0489 12.16C61.8889 12.432 61.8089 12.744 61.8089 13.096C61.8089 13.432 61.8889 13.744 62.0489 14.032C62.2249 14.304 62.4489 14.528 62.7209 14.704C63.0089 14.864 63.3209 14.944 63.6569 14.944H69.3689V17.968H63.8009C63.4329 17.968 63.0969 18.064 62.7929 18.256C62.4889 18.432 62.2489 18.672 62.0729 18.976C61.8969 19.28 61.8089 19.616 61.8089 19.984C61.8089 20.352 61.8969 20.688 62.0729 20.992C62.2489 21.296 62.4889 21.536 62.7929 21.712C63.0969 21.888 63.4329 21.976 63.8009 21.976H70.1849V25H63.3929ZM84.2793 25.264C83.3353 25.264 82.4793 25.048 81.7113 24.616C80.9593 24.184 80.3673 23.592 79.9353 22.84C79.5033 22.088 79.2873 21.224 79.2873 20.248V12.52C79.2873 12.232 79.2153 11.968 79.0713 11.728C78.9273 11.488 78.7353 11.296 78.4953 11.152C78.2553 11.008 77.9913 10.936 77.7032 10.936C77.4152 10.936 77.1512 11.008 76.9113 11.152C76.6873 11.296 76.5033 11.488 76.3593 11.728C76.2153 11.968 76.1432 12.232 76.1432 12.52V25H72.7112V12.928C72.7112 12 72.9192 11.16 73.3352 10.408C73.7512 9.656 74.3352 9.056 75.0872 8.608C75.8393 8.144 76.7113 7.912 77.7032 7.912C78.7113 7.912 79.5913 8.144 80.3433 8.608C81.0953 9.056 81.6793 9.656 82.0953 10.408C82.5113 11.16 82.7193 12 82.7193 12.928V20.656C82.7193 20.944 82.7913 21.208 82.9353 21.448C83.0793 21.688 83.2633 21.88 83.4872 22.024C83.7273 22.168 83.9913 22.24 84.2793 22.24C84.5673 22.24 84.8313 22.168 85.0713 22.024C85.3113 21.88 85.5033 21.688 85.6473 21.448C85.7913 21.208 85.8633 20.944 85.8633 20.656V12.928C85.8633 12 86.0713 11.16 86.4872 10.408C86.9033 9.656 87.4873 9.056 88.2393 8.608C89.0073 8.144 89.8873 7.912 90.8793 7.912C91.8873 7.912 92.7593 8.144 93.4953 8.608C94.2473 9.056 94.8313 9.656 95.2473 10.408C95.6633 11.16 95.8713 12 95.8713 12.928V25H92.4393V12.52C92.4393 12.232 92.3673 11.968 92.2233 11.728C92.0953 11.488 91.9113 11.296 91.6713 11.152C91.4313 11.008 91.1673 10.936 90.8793 10.936C90.5913 10.936 90.3273 11.008 90.0873 11.152C89.8473 11.296 89.6553 11.488 89.5113 11.728C89.3673 11.968 89.2953 12.232 89.2953 12.52V20.248C89.2953 21.224 89.0713 22.088 88.6233 22.84C88.1913 23.592 87.5993 24.184 86.8473 24.616C86.0953 25.048 85.2393 25.264 84.2793 25.264ZM106.958 25.312C105.614 25.312 104.398 25.088 103.31 24.64C102.238 24.176 101.318 23.544 100.55 22.744C99.7823 21.944 99.1903 21.016 98.7743 19.96C98.3583 18.904 98.1503 17.776 98.1503 16.576C98.1503 15.376 98.3583 14.256 98.7743 13.216C99.1903 12.16 99.7823 11.232 100.55 10.432C101.318 9.632 102.238 9.008 103.31 8.56C104.398 8.112 105.614 7.888 106.958 7.888C108.302 7.888 109.51 8.112 110.582 8.56C111.67 9.008 112.598 9.632 113.366 10.432C114.134 11.232 114.726 12.16 115.142 13.216C115.558 14.256 115.766 15.376 115.766 16.576C115.766 17.776 115.558 18.904 115.142 19.96C114.726 21.016 114.134 21.944 113.366 22.744C112.598 23.544 111.67 24.176 110.582 24.64C109.51 25.088 108.302 25.312 106.958 25.312ZM106.958 22.264C107.726 22.264 108.438 22.128 109.094 21.856C109.75 21.568 110.318 21.168 110.798 20.656C111.294 20.128 111.67 19.52 111.926 18.832C112.198 18.144 112.334 17.392 112.334 16.576C112.334 15.76 112.198 15.008 111.926 14.32C111.67 13.632 111.294 13.032 110.798 12.52C110.318 12.008 109.75 11.616 109.094 11.344C108.438 11.056 107.726 10.912 106.958 10.912C106.19 10.912 105.478 11.056 104.822 11.344C104.166 11.616 103.59 12.008 103.094 12.52C102.614 13.032 102.238 13.632 101.966 14.32C101.71 15.008 101.582 15.76 101.582 16.576C101.582 17.392 101.71 18.144 101.966 18.832C102.238 19.52 102.614 20.128 103.094 20.656C103.59 21.168 104.166 21.568 104.822 21.856C105.478 22.128 106.19 22.264 106.958 22.264Z" fill="#1D1F2C"/>
<defs>
<linearGradient id="paint0_linear_25_13654" x1="0" y1="17" x2="34" y2="17" gradientUnits="userSpaceOnUse">
<stop stop-color="#2BB2FE"/>
<stop offset="1" stop-color="#22CAAD"/>
</linearGradient>
</defs>
</svg>
