<svg width="35" height="36" viewBox="0 0 35 36" fill="none" xmlns="http://www.w3.org/2000/svg">
<rect x="0.102112" y="0.714844" width="34.5306" height="34.5306" rx="17.2653" fill="#EBEEFF"/>
<g clip-path="url(#clip0_166_4353)">
<path d="M16.8061 18.3226C16.6279 18.1443 16.4164 18.0029 16.1835 17.9064C15.9507 17.8099 15.7012 17.7603 15.4491 17.7603C15.1971 17.7603 14.9475 17.8099 14.7147 17.9064C14.4819 18.0029 14.2704 18.1443 14.0922 18.3226L9.71832 22.6964C9.77745 23.4984 10.1371 24.2484 10.7254 24.7966C11.3137 25.3449 12.0872 25.6508 12.8913 25.6533H21.8437C22.4702 25.6532 23.0826 25.4678 23.6041 25.1206L16.8061 18.3226Z" fill="url(#paint0_linear_166_4353)"/>
<path d="M21.2041 15.4226C21.9104 15.4226 22.483 14.85 22.483 14.1437C22.483 13.4373 21.9104 12.8647 21.2041 12.8647C20.4978 12.8647 19.9252 13.4373 19.9252 14.1437C19.9252 14.85 20.4978 15.4226 21.2041 15.4226Z" fill="url(#paint1_linear_166_4353)"/>
<path d="M21.8436 10.3066H12.8912C12.0436 10.3077 11.2309 10.6448 10.6316 11.2442C10.0322 11.8436 9.69499 12.6563 9.69397 13.5039L9.69397 20.9127L13.188 17.4187C13.4849 17.1217 13.8374 16.8861 14.2253 16.7254C14.6133 16.5646 15.0291 16.4819 15.4491 16.4819C15.869 16.4819 16.2848 16.5646 16.6728 16.7254C17.0608 16.8861 17.4133 17.1217 17.7102 17.4187L24.5082 24.2167C24.8555 23.6953 25.0408 23.0828 25.0409 22.4563V13.5039C25.0399 12.6563 24.7027 11.8436 24.1033 11.2442C23.5039 10.6448 22.6913 10.3077 21.8436 10.3066V10.3066ZM21.2042 16.7012C20.6983 16.7012 20.2038 16.5512 19.7831 16.2701C19.3625 15.9891 19.0346 15.5896 18.8411 15.1222C18.6475 14.6548 18.5968 14.1405 18.6955 13.6444C18.7942 13.1482 19.0378 12.6924 19.3955 12.3347C19.7532 11.977 20.209 11.7334 20.7052 11.6347C21.2013 11.536 21.7156 11.5867 22.183 11.7803C22.6504 11.9739 23.0499 12.3017 23.3309 12.7223C23.612 13.143 23.762 13.6375 23.762 14.1434C23.762 14.8218 23.4925 15.4723 23.0128 15.952C22.5331 16.4317 21.8826 16.7012 21.2042 16.7012Z" fill="url(#paint2_linear_166_4353)"/>
</g>
<defs>
<linearGradient id="paint0_linear_166_4353" x1="9.71832" y1="21.7068" x2="23.6041" y2="21.7068" gradientUnits="userSpaceOnUse">
<stop stop-color="#3250FF"/>
<stop offset="1" stop-color="#2BB2FE"/>
</linearGradient>
<linearGradient id="paint1_linear_166_4353" x1="19.9252" y1="14.1437" x2="22.483" y2="14.1437" gradientUnits="userSpaceOnUse">
<stop stop-color="#3250FF"/>
<stop offset="1" stop-color="#2BB2FE"/>
</linearGradient>
<linearGradient id="paint2_linear_166_4353" x1="9.69397" y1="17.2617" x2="25.0409" y2="17.2617" gradientUnits="userSpaceOnUse">
<stop stop-color="#3250FF"/>
<stop offset="1" stop-color="#2BB2FE"/>
</linearGradient>
<clipPath id="clip0_166_4353">
<rect width="15.3469" height="15.3469" fill="white" transform="translate(9.69397 10.3066)"/>
</clipPath>
</defs>
</svg>
